<?xml version="1.0" encoding="UTF-8" standalone="no"?>
<!-- Created with Inkscape (http://www.inkscape.org/) -->

<svg
   xmlns:dc="http://purl.org/dc/elements/1.1/"
   xmlns:cc="http://creativecommons.org/ns#"
   xmlns:rdf="http://www.w3.org/1999/02/22-rdf-syntax-ns#"
   xmlns:svg="http://www.w3.org/2000/svg"
   xmlns="http://www.w3.org/2000/svg"
   version="1.1"
   width="494.56775"
   height="202.14561"
   id="svg2"
   xml:space="preserve"><metadata
     id="metadata8"><rdf:RDF><cc:Work
         rdf:about=""><dc:format>image/svg+xml</dc:format><dc:type
           rdf:resource="http://purl.org/dc/dcmitype/StillImage" /><dc:title></dc:title></cc:Work></rdf:RDF></metadata><defs
     id="defs6" /><g
     transform="matrix(1.25,0,0,-1.25,0,202.14562)"
     id="g10"><path
       d="m 0.1508,161.7168 395.5031,0 0,-161.7171 -395.5031,0 0,161.7171 z"
       id="path12"
       style="fill:#ffffff;fill-opacity:1;fill-rule:evenodd;stroke:none" /><path
       d="M 395.6539,-3e-4 0,-3e-4 l 0,28.347 395.6539,0 0,-28.347 z"
       id="path14"
       style="fill:#f25c19;fill-opacity:1;fill-rule:nonzero;stroke:none" /><path
       d="m 95.6055,14.5261 1.5681,0 c 1.7958,0 4.3039,0.468 4.3039,3.3319 0,2.7731 -1.711,3.539 -4.0241,3.539 -1.8479,0 -1.8479,-0.458 -1.8479,-2.3079 l 0,-4.563 z m -3.0379,4.5919 c 0,2.539 -0.0601,2.539 -2.6232,2.9219 l 0,0.5633 6.789,0 c 2.0682,0 7.78,0 7.78,-4.5902 0,-2.923 -2.0378,-3.897 -4.218,-4.229 l 5.076,-8.458 -3.1748,0 -4.8832,7.9991 -1.7079,0 0,-7.9991 -3.0379,0 0,13.792 z"
       id="path16"
       style="fill:#ffffff;fill-opacity:1;fill-rule:nonzero;stroke:none" /><path
       d="m 95.6055,14.5261 1.5681,0 c 1.7958,0 4.3039,0.468 4.3039,3.3319 0,2.7731 -1.711,3.539 -4.0241,3.539 -1.8479,0 -1.8479,-0.458 -1.8479,-2.3079 l 0,-4.563 z m -3.0379,4.5919 c 0,2.539 -0.0601,2.539 -2.6232,2.9219 l 0,0.5633 6.789,0 c 2.0682,0 7.78,0 7.78,-4.5902 0,-2.923 -2.0378,-3.897 -4.218,-4.229 l 5.076,-8.458 -3.1748,0 -4.8832,7.9991 -1.7079,0 0,-7.9991 -3.0379,0 0,13.792 z"
       id="path18"
       style="fill:#ffffff;fill-opacity:1;fill-rule:nonzero;stroke:#ffffff;stroke-width:0.37189999;stroke-linecap:butt;stroke-linejoin:miter;stroke-miterlimit:2.61312604;stroke-opacity:1;stroke-dasharray:none" /><path
       d="m 116.0141,13.6803 c 0,0.5862 -0.0538,2.9971 -2.45,2.9971 -2.0698,0 -2.6478,-2.024 -2.6478,-2.9971 l 5.0978,0 z m 2.5172,-7.939 c -0.5242,-0.18 -1.9871,-0.6959 -3.892,-0.6959 -4.2211,0 -6.7592,2.393 -6.7592,6.6841 0,4.0549 2.0971,5.8257 5.7932,5.8257 4.7188,0 5.106,-3.183 5.106,-4.8988 l -7.863,0 c 0,-2.5702 1.129,-6.222 5.0179,-6.222 1.1599,0 2.1279,0.2579 2.5971,0.439 l 0,-1.1321 z"
       id="path20"
       style="fill:#ffffff;fill-opacity:1;fill-rule:nonzero;stroke:none" /><path
       d="m 116.0141,13.6803 c 0,0.5862 -0.0538,2.9971 -2.45,2.9971 -2.0698,0 -2.6478,-2.024 -2.6478,-2.9971 l 5.0978,0 z m 2.5172,-7.939 c -0.5242,-0.18 -1.9871,-0.6959 -3.892,-0.6959 -4.2211,0 -6.7592,2.393 -6.7592,6.6841 0,4.0549 2.0971,5.8257 5.7932,5.8257 4.7188,0 5.106,-3.183 5.106,-4.8988 l -7.863,0 c 0,-2.5702 1.129,-6.222 5.0179,-6.222 1.1599,0 2.1279,0.2579 2.5971,0.439 l 0,-1.1321 z"
       id="path22"
       style="fill:#ffffff;fill-opacity:1;fill-rule:nonzero;stroke:#ffffff;stroke-width:0.37189999;stroke-linecap:butt;stroke-linejoin:miter;stroke-miterlimit:2.61312604;stroke-opacity:1;stroke-dasharray:none" /><path
       d="m 122.5273,19.8102 c 0,1.8221 -0.468,2.2561 -2.094,2.336 l 0,0.5091 4.8572,0.6441 0,-17.9723 -2.7632,0 0,14.4831 z"
       id="path24"
       style="fill:#ffffff;fill-opacity:1;fill-rule:nonzero;stroke:none" /><path
       d="m 122.5273,19.8102 c 0,1.8221 -0.468,2.2561 -2.094,2.336 l 0,0.5091 4.8572,0.6441 0,-17.9723 -2.7632,0 0,14.4831 z"
       id="path26"
       style="fill:#ffffff;fill-opacity:1;fill-rule:nonzero;stroke:#ffffff;stroke-width:0.37189999;stroke-linecap:butt;stroke-linejoin:miter;stroke-miterlimit:2.61312604;stroke-opacity:1;stroke-dasharray:none" /><path
       d="m 130.7265,21.1961 c 0,0.8691 0.769,1.593 1.7371,1.593 0.9351,0 1.7651,-0.6962 1.7651,-1.593 0,-0.8961 -0.83,-1.6149 -1.7941,-1.6149 -0.9391,0 -1.7081,0.7188 -1.7081,1.6149 z m 0.301,-7.259 c 0,1.798 -0.4459,2.2289 -2.1279,2.2771 l 0,0.5167 4.89,0.8241 0,-12.2279 -2.7621,0 0,8.61 z"
       id="path28"
       style="fill:#ffffff;fill-opacity:1;fill-rule:nonzero;stroke:none" /><path
       d="m 130.7265,21.1961 c 0,0.8691 0.769,1.593 1.7371,1.593 0.9351,0 1.7651,-0.6962 1.7651,-1.593 0,-0.8961 -0.83,-1.6149 -1.7941,-1.6149 -0.9391,0 -1.7081,0.7188 -1.7081,1.6149 z m 0.301,-7.259 c 0,1.798 -0.4459,2.2289 -2.1279,2.2771 l 0,0.5167 4.89,0.8241 0,-12.2279 -2.7621,0 0,8.61 z"
       id="path30"
       style="fill:#ffffff;fill-opacity:1;fill-rule:nonzero;stroke:#ffffff;stroke-width:0.37189999;stroke-linecap:butt;stroke-linejoin:miter;stroke-miterlimit:2.61312604;stroke-opacity:1;stroke-dasharray:none" /><path
       d="m 145.0185,11.0358 c -0.9958,-0.0249 -4.2219,-0.157 -4.2219,-2.5959 0,-1.1852 0.6329,-2.0061 1.652,-2.0061 1.599,0 2.5699,1.3632 2.5699,3.1082 l 0,1.4938 z m 0,-4.191 c -0.4998,-0.5408 -1.4358,-1.7969 -3.562,-1.7969 -2.1538,0 -3.6978,1.4389 -3.6978,2.9509 0,3.6289 5.493,3.907 7.2598,3.9572 l 0,1.3169 c 0,1.6138 0,3.4039 -1.7379,3.4039 -1.8241,0 -1.9299,-1.4828 -1.9299,-2.6158 l -3.2901,0 c 0.3061,1.6988 1.214,3.4928 5.1911,3.4928 3.9169,0 4.5249,-1.8751 4.5249,-4.411 l 0,-7.8159 -2.7581,0 0,1.5179 z"
       id="path32"
       style="fill:#ffffff;fill-opacity:1;fill-rule:nonzero;stroke:none" /><path
       d="m 145.0185,11.0358 c -0.9958,-0.0249 -4.2219,-0.157 -4.2219,-2.5959 0,-1.1852 0.6329,-2.0061 1.652,-2.0061 1.599,0 2.5699,1.3632 2.5699,3.1082 l 0,1.4938 z m 0,-4.191 c -0.4998,-0.5408 -1.4358,-1.7969 -3.562,-1.7969 -2.1538,0 -3.6978,1.4389 -3.6978,2.9509 0,3.6289 5.493,3.907 7.2598,3.9572 l 0,1.3169 c 0,1.6138 0,3.4039 -1.7379,3.4039 -1.8241,0 -1.9299,-1.4828 -1.9299,-2.6158 l -3.2901,0 c 0.3061,1.6988 1.214,3.4928 5.1911,3.4928 3.9169,0 4.5249,-1.8751 4.5249,-4.411 l 0,-7.8159 -2.7581,0 0,1.5179 z"
       id="path34"
       style="fill:#ffffff;fill-opacity:1;fill-rule:nonzero;stroke:#ffffff;stroke-width:0.37189999;stroke-linecap:butt;stroke-linejoin:miter;stroke-miterlimit:2.61312604;stroke-opacity:1;stroke-dasharray:none" /><path
       d="m 154.7291,11.0095 c 0,-1.3641 0.22,-4.5751 2.5118,-4.5751 2.615,0 2.8381,3.0061 2.8381,4.9889 0,1.7932 -0.2469,4.7421 -2.645,4.7421 -2.403,0 -2.7049,-2.6648 -2.7049,-4.1 l 0,-1.0559 z m -2.7612,8.8529 c 0,1.794 -0.468,2.203 -2.1229,2.283 l 0,0.5099 4.8841,0.6441 0,-7.6709 0.055,0 c 0.4978,0.847 1.294,1.9259 3.445,1.9259 3.9478,0 4.879,-3.3599 4.879,-6.497 0,-3.206 -1.372,-6.012 -4.9612,-6.012 -1.8749,0 -2.8959,1.1092 -3.5538,1.7252 l -1.88,-1.444 -0.7452,0 0,14.5358 z"
       id="path36"
       style="fill:#ffffff;fill-opacity:1;fill-rule:nonzero;stroke:none" /><path
       d="m 154.7291,11.0095 c 0,-1.3641 0.22,-4.5751 2.5118,-4.5751 2.615,0 2.8381,3.0061 2.8381,4.9889 0,1.7932 -0.2469,4.7421 -2.645,4.7421 -2.403,0 -2.7049,-2.6648 -2.7049,-4.1 l 0,-1.0559 z m -2.7612,8.8529 c 0,1.794 -0.468,2.203 -2.1229,2.283 l 0,0.5099 4.8841,0.6441 0,-7.6709 0.055,0 c 0.4978,0.847 1.294,1.9259 3.445,1.9259 3.9478,0 4.879,-3.3599 4.879,-6.497 0,-3.206 -1.372,-6.012 -4.9612,-6.012 -1.8749,0 -2.8959,1.1092 -3.5538,1.7252 l -1.88,-1.444 -0.7452,0 0,14.5358 z"
       id="path38"
       style="fill:#ffffff;fill-opacity:1;fill-rule:nonzero;stroke:#ffffff;stroke-width:0.37189999;stroke-linecap:butt;stroke-linejoin:miter;stroke-miterlimit:2.61312604;stroke-opacity:1;stroke-dasharray:none" /><path
       d="m 167.2206,19.8102 c 0,1.8221 -0.4598,2.2561 -2.0929,2.336 l 0,0.5091 4.8581,0.6441 0,-17.9723 -2.7652,0 0,14.4831 z"
       id="path40"
       style="fill:#ffffff;fill-opacity:1;fill-rule:nonzero;stroke:none" /><path
       d="m 167.2206,19.8102 c 0,1.8221 -0.4598,2.2561 -2.0929,2.336 l 0,0.5091 4.8581,0.6441 0,-17.9723 -2.7652,0 0,14.4831 z"
       id="path42"
       style="fill:#ffffff;fill-opacity:1;fill-rule:nonzero;stroke:#ffffff;stroke-width:0.37189999;stroke-linecap:butt;stroke-linejoin:miter;stroke-miterlimit:2.61312604;stroke-opacity:1;stroke-dasharray:none" /><path
       d="m 182.3165,13.6803 c 0,0.5862 -0.0542,2.9971 -2.4582,2.9971 -2.0659,0 -2.649,-2.024 -2.649,-2.9971 l 5.1072,0 z m 2.5098,-7.939 c -0.5239,-0.18 -1.9809,-0.6959 -3.8889,-0.6959 -4.2259,0 -6.7569,2.393 -6.7569,6.6841 0,4.0549 2.099,5.8257 5.7929,5.8257 4.714,0 5.104,-3.183 5.104,-4.8988 l -7.8681,0 c 0,-2.5702 1.131,-6.222 5.0272,-6.222 1.158,0 2.1209,0.2579 2.5898,0.439 l 0,-1.1321 z"
       id="path44"
       style="fill:#ffffff;fill-opacity:1;fill-rule:nonzero;stroke:none" /><path
       d="m 182.3165,13.6803 c 0,0.5862 -0.0542,2.9971 -2.4582,2.9971 -2.0659,0 -2.649,-2.024 -2.649,-2.9971 l 5.1072,0 z m 2.5098,-7.939 c -0.5239,-0.18 -1.9809,-0.6959 -3.8889,-0.6959 -4.2259,0 -6.7569,2.393 -6.7569,6.6841 0,4.0549 2.099,5.8257 5.7929,5.8257 4.714,0 5.104,-3.183 5.104,-4.8988 l -7.8681,0 c 0,-2.5702 1.131,-6.222 5.0272,-6.222 1.158,0 2.1209,0.2579 2.5898,0.439 l 0,-1.1321 z"
       id="path46"
       style="fill:#ffffff;fill-opacity:1;fill-rule:nonzero;stroke:#ffffff;stroke-width:0.37189999;stroke-linecap:butt;stroke-linejoin:miter;stroke-miterlimit:2.61312604;stroke-opacity:1;stroke-dasharray:none" /><path
       d="m 205.4112,15.194 c -0.417,0.2591 -1.7379,1.2342 -3.2879,1.2342 -0.8802,0 -1.929,-0.3181 -1.929,-1.4122 0,-2.4398 6.0398,-2.492 6.0398,-6.4239 0,-2.516 -2.232,-3.5442 -4.968,-3.5442 -1.6759,0 -2.8928,0.3042 -3.528,0.4612 l 0,2.007 c 0.801,-0.5131 2.097,-1.338 3.6422,-1.338 1.7408,0 2.372,0.8249 2.372,1.717 0,2.5231 -6.038,2.677 -6.038,6.2189 0,1.8502 1.3529,3.439 4.606,3.439 1.404,0 2.62,-0.3328 3.0909,-0.436 l 0,-1.923 z"
       id="path48"
       style="fill:#ffffff;fill-opacity:1;fill-rule:nonzero;stroke:none" /><path
       d="m 205.4112,15.194 c -0.417,0.2591 -1.7379,1.2342 -3.2879,1.2342 -0.8802,0 -1.929,-0.3181 -1.929,-1.4122 0,-2.4398 6.0398,-2.492 6.0398,-6.4239 0,-2.516 -2.232,-3.5442 -4.968,-3.5442 -1.6759,0 -2.8928,0.3042 -3.528,0.4612 l 0,2.007 c 0.801,-0.5131 2.097,-1.338 3.6422,-1.338 1.7408,0 2.372,0.8249 2.372,1.717 0,2.5231 -6.038,2.677 -6.038,6.2189 0,1.8502 1.3529,3.439 4.606,3.439 1.404,0 2.62,-0.3328 3.0909,-0.436 l 0,-1.923 z"
       id="path50"
       style="fill:#ffffff;fill-opacity:1;fill-rule:nonzero;stroke:#ffffff;stroke-width:0.37189999;stroke-linecap:butt;stroke-linejoin:miter;stroke-miterlimit:2.61312604;stroke-opacity:1;stroke-dasharray:none" /><path
       d="m 215.3965,5.9224 c 2.7011,0 2.9271,2.8001 2.9271,5.3711 0,2.357 -0.2472,5.383 -2.9271,5.383 -2.73,0 -2.9231,-3.1229 -2.9231,-5.383 0,-2.137 0.1931,-5.3711 2.9231,-5.3711 z m -5.961,5.3711 c 0,4.2812 1.927,6.262 5.961,6.262 4.0011,0 5.9641,-2.565 5.9641,-6.262 0,-4.1919 -1.885,-6.2458 -5.9641,-6.2458 -4.4339,0 -5.961,2.6458 -5.961,6.2458"
       id="path52"
       style="fill:#ffffff;fill-opacity:1;fill-rule:nonzero;stroke:none" /><path
       d="m 215.3965,5.9224 c 2.7011,0 2.9271,2.8001 2.9271,5.3711 0,2.357 -0.2472,5.383 -2.9271,5.383 -2.73,0 -2.9231,-3.1229 -2.9231,-5.383 0,-2.137 0.1931,-5.3711 2.9231,-5.3711 z m -5.961,5.3711 c 0,4.2812 1.927,6.262 5.961,6.262 4.0011,0 5.9641,-2.565 5.9641,-6.262 0,-4.1919 -1.885,-6.2458 -5.9641,-6.2458 -4.4339,0 -5.961,2.6458 -5.961,6.2458 z"
       id="path54"
       style="fill:#ffffff;fill-opacity:1;fill-rule:nonzero;stroke:#ffffff;stroke-width:0.37189999;stroke-linecap:butt;stroke-linejoin:miter;stroke-miterlimit:2.61312604;stroke-opacity:1;stroke-dasharray:none" /><path
       d="m 225.4941,19.8102 c 0,1.8221 -0.4669,2.2561 -2.0968,2.336 l 0,0.5091 4.8549,0.6441 0,-17.9723 -2.7581,0 0,14.4831 z"
       id="path56"
       style="fill:#ffffff;fill-opacity:1;fill-rule:nonzero;stroke:none" /><path
       d="m 225.4941,19.8102 c 0,1.8221 -0.4669,2.2561 -2.0968,2.336 l 0,0.5091 4.8549,0.6441 0,-17.9723 -2.7581,0 0,14.4831 z"
       id="path58"
       style="fill:#ffffff;fill-opacity:1;fill-rule:nonzero;stroke:#ffffff;stroke-width:0.37189999;stroke-linecap:butt;stroke-linejoin:miter;stroke-miterlimit:2.61312604;stroke-opacity:1;stroke-dasharray:none" /><path
       d="m 241.8809,8.2293 -0.053,0 c -0.472,-1.1279 -1.6019,-3.1811 -4.2769,-3.1811 -3.695,0 -3.695,3.3421 -3.695,5.243 l 0,3.6462 c 0,1.7977 -0.4431,2.2297 -2.122,2.2779 l 0,0.5151 4.8858,0.8237 0,-7.727 c 0,-2.3388 0.9312,-3.0339 2.2541,-3.0339 1.7949,0 3.007,2.183 3.007,4.3149 l 0,2.8293 c 0,1.7977 -0.4649,2.2297 -2.1189,2.2779 l 0,0.5151 4.8829,0.8237 0,-12.2278 -2.764,0 0,2.903 z"
       id="path60"
       style="fill:#ffffff;fill-opacity:1;fill-rule:nonzero;stroke:none" /><path
       d="m 241.8809,8.2293 -0.053,0 c -0.472,-1.1279 -1.6019,-3.1811 -4.2769,-3.1811 -3.695,0 -3.695,3.3421 -3.695,5.243 l 0,3.6462 c 0,1.7977 -0.4431,2.2297 -2.122,2.2779 l 0,0.5151 4.8858,0.8237 0,-7.727 c 0,-2.3388 0.9312,-3.0339 2.2541,-3.0339 1.7949,0 3.007,2.183 3.007,4.3149 l 0,2.8293 c 0,1.7977 -0.4649,2.2297 -2.1189,2.2779 l 0,0.5151 4.8829,0.8237 0,-12.2278 -2.764,0 0,2.903 z"
       id="path62"
       style="fill:#ffffff;fill-opacity:1;fill-rule:nonzero;stroke:#ffffff;stroke-width:0.37189999;stroke-linecap:butt;stroke-linejoin:miter;stroke-miterlimit:2.61312604;stroke-opacity:1;stroke-dasharray:none" /><path
       d="m 255.873,5.2526 c -0.6098,-0.1069 -1.2419,-0.2049 -1.8519,-0.2049 -2.6481,0 -4.1879,0.3849 -4.1879,3.3139 l 0,7.8821 -2.1541,0 0,1.0289 2.1541,0 0,2.0231 2.7598,2.2819 0,-4.305 3.6091,0 0,-1.0289 -3.6091,0 0,-7.4702 c 0,-1.7957 0.1352,-2.596 2.2572,-2.596 0.33,0 0.6889,0.0281 1.0228,0.1001 l 0,-1.025 z"
       id="path64"
       style="fill:#ffffff;fill-opacity:1;fill-rule:nonzero;stroke:none" /><path
       d="m 255.873,5.2526 c -0.6098,-0.1069 -1.2419,-0.2049 -1.8519,-0.2049 -2.6481,0 -4.1879,0.3849 -4.1879,3.3139 l 0,7.8821 -2.1541,0 0,1.0289 2.1541,0 0,2.0231 2.7598,2.2819 0,-4.305 3.6091,0 0,-1.0289 -3.6091,0 0,-7.4702 c 0,-1.7957 0.1352,-2.596 2.2572,-2.596 0.33,0 0.6889,0.0281 1.0228,0.1001 l 0,-1.025 z"
       id="path66"
       style="fill:#ffffff;fill-opacity:1;fill-rule:nonzero;stroke:#ffffff;stroke-width:0.37189999;stroke-linecap:butt;stroke-linejoin:miter;stroke-miterlimit:2.61312604;stroke-opacity:1;stroke-dasharray:none" /><path
       d="m 260.3985,21.1961 c 0,0.8691 0.771,1.593 1.7351,1.593 0.938,0 1.7679,-0.6962 1.7679,-1.593 0,-0.8961 -0.8299,-1.6149 -1.792,-1.6149 -0.94,0 -1.711,0.7188 -1.711,1.6149 z m 0.299,-7.259 c 0,1.798 -0.441,2.2289 -2.122,2.2771 l 0,0.5167 4.8821,0.8241 0,-12.2279 -2.7601,0 0,8.61 z"
       id="path68"
       style="fill:#ffffff;fill-opacity:1;fill-rule:nonzero;stroke:none" /><path
       d="m 260.3985,21.1961 c 0,0.8691 0.771,1.593 1.7351,1.593 0.938,0 1.7679,-0.6962 1.7679,-1.593 0,-0.8961 -0.8299,-1.6149 -1.792,-1.6149 -0.94,0 -1.711,0.7188 -1.711,1.6149 z m 0.299,-7.259 c 0,1.798 -0.441,2.2289 -2.122,2.2771 l 0,0.5167 4.8821,0.8241 0,-12.2279 -2.7601,0 0,8.61 z"
       id="path70"
       style="fill:#ffffff;fill-opacity:1;fill-rule:nonzero;stroke:#ffffff;stroke-width:0.37189999;stroke-linecap:butt;stroke-linejoin:miter;stroke-miterlimit:2.61312604;stroke-opacity:1;stroke-dasharray:none" /><path
       d="m 273.1972,5.9224 c 2.7051,0 2.9251,2.8001 2.9251,5.3711 0,2.357 -0.2461,5.383 -2.9251,5.383 -2.732,0 -2.9248,-3.1229 -2.9248,-5.383 0,-2.137 0.1928,-5.3711 2.9248,-5.3711 z m -5.959,5.3711 c 0,4.2812 1.929,6.262 5.959,6.262 4.0022,0 5.957,-2.565 5.957,-6.262 0,-4.1919 -1.872,-6.2458 -5.957,-6.2458 -4.4408,0 -5.959,2.6458 -5.959,6.2458"
       id="path72"
       style="fill:#ffffff;fill-opacity:1;fill-rule:nonzero;stroke:none" /><path
       d="m 273.1972,5.9224 c 2.7051,0 2.9251,2.8001 2.9251,5.3711 0,2.357 -0.2461,5.383 -2.9251,5.383 -2.732,0 -2.9248,-3.1229 -2.9248,-5.383 0,-2.137 0.1928,-5.3711 2.9248,-5.3711 z m -5.959,5.3711 c 0,4.2812 1.929,6.262 5.959,6.262 4.0022,0 5.957,-2.565 5.957,-6.262 0,-4.1919 -1.872,-6.2458 -5.957,-6.2458 -4.4408,0 -5.959,2.6458 -5.959,6.2458 z"
       id="path74"
       style="fill:#ffffff;fill-opacity:1;fill-rule:nonzero;stroke:#ffffff;stroke-width:0.37189999;stroke-linecap:butt;stroke-linejoin:miter;stroke-miterlimit:2.61312604;stroke-opacity:1;stroke-dasharray:none" /><path
       d="m 283.1074,13.9363 c 0,1.7988 -0.474,2.2288 -2.2099,2.279 l 0,0.5159 4.9649,0.824 0,-3.289 0.055,0 c 0.4121,0.9 1.8771,3.289 4.6091,3.289 2.5121,0 3.3389,-1.6401 3.3389,-3.6189 l 0,-8.6092 -2.762,0 0,6.6572 c 0,2.0299 0,3.8228 -1.8479,3.8228 -1.8179,0 -3.3931,-2.3808 -3.3931,-4.2077 l 0,-6.2723 -2.755,0 0,8.6092 z"
       id="path76"
       style="fill:#ffffff;fill-opacity:1;fill-rule:nonzero;stroke:none" /><path
       d="m 283.1074,13.9363 c 0,1.7988 -0.474,2.2288 -2.2099,2.279 l 0,0.5159 4.9649,0.824 0,-3.289 0.055,0 c 0.4121,0.9 1.8771,3.289 4.6091,3.289 2.5121,0 3.3389,-1.6401 3.3389,-3.6189 l 0,-8.6092 -2.762,0 0,6.6572 c 0,2.0299 0,3.8228 -1.8479,3.8228 -1.8179,0 -3.3931,-2.3808 -3.3931,-4.2077 l 0,-6.2723 -2.755,0 0,8.6092 z"
       id="path78"
       style="fill:#ffffff;fill-opacity:1;fill-rule:nonzero;stroke:#ffffff;stroke-width:0.37189999;stroke-linecap:butt;stroke-linejoin:miter;stroke-miterlimit:2.61312604;stroke-opacity:1;stroke-dasharray:none" /><path
       d="m 304.8996,15.194 c -0.4122,0.2591 -1.7402,1.2342 -3.282,1.2342 -0.8892,0 -1.9352,-0.3181 -1.9352,-1.4122 0,-2.4398 6.0441,-2.492 6.0441,-6.4239 0,-2.516 -2.232,-3.5442 -4.9649,-3.5442 -1.6872,0 -2.8942,0.3042 -3.532,0.4612 l 0,2.007 c 0.7999,-0.5131 2.0999,-1.338 3.6408,-1.338 1.7371,0 2.3721,0.8249 2.3721,1.717 0,2.5231 -6.0381,2.677 -6.0381,6.2189 0,1.8502 1.349,3.439 4.6051,3.439 1.4091,0 2.6229,-0.3328 3.0901,-0.436 l 0,-1.923 z"
       id="path80"
       style="fill:#ffffff;fill-opacity:1;fill-rule:nonzero;stroke:none" /><path
       d="m 304.8996,15.194 c -0.4122,0.2591 -1.7402,1.2342 -3.282,1.2342 -0.8892,0 -1.9352,-0.3181 -1.9352,-1.4122 0,-2.4398 6.0441,-2.492 6.0441,-6.4239 0,-2.516 -2.232,-3.5442 -4.9649,-3.5442 -1.6872,0 -2.8942,0.3042 -3.532,0.4612 l 0,2.007 c 0.7999,-0.5131 2.0999,-1.338 3.6408,-1.338 1.7371,0 2.3721,0.8249 2.3721,1.717 0,2.5231 -6.0381,2.677 -6.0381,6.2189 0,1.8502 1.349,3.439 4.6051,3.439 1.4091,0 2.6229,-0.3328 3.0901,-0.436 l 0,-1.923 z"
       id="path82"
       style="fill:#ffffff;fill-opacity:1;fill-rule:nonzero;stroke:#ffffff;stroke-width:0.37189999;stroke-linecap:butt;stroke-linejoin:miter;stroke-miterlimit:2.61312604;stroke-opacity:1;stroke-dasharray:none" /><path
       d="m 42.5273,108.993 29.3772,0 0,-9.1582 -7.9742,0 0,-19.19 -12.9999,0 0,19.19 -8.4031,0 0,9.1582 z"
       id="path84"
       style="fill:#231f20;fill-opacity:1;fill-rule:evenodd;stroke:none" /><path
       d="m 69.3882,81.0711 10.906,27.9199 13.0189,0 12.1541,-27.9199 -12.1541,0 -6.3068,13.3181 -5.8722,-13.3181 -11.7459,0 z"
       id="path86"
       style="fill:#231f20;fill-opacity:1;fill-rule:evenodd;stroke:none" /><path
       d="m 102.543,108.993 29.3769,0 0,-9.1582 -7.981,0 0,-19.19 -13.015,0 0,19.19 -8.3809,0 0,9.1582 z"
       id="path88"
       style="fill:#231f20;fill-opacity:1;fill-rule:evenodd;stroke:none" /><path
       d="m 129.4038,81.0711 10.9109,27.9199 13.0062,0 12.181,-27.9199 -12.181,0 -6.2992,13.3181 -5.8728,-13.3181 -11.7451,0 z"
       id="path90"
       style="fill:#231f20;fill-opacity:1;fill-rule:evenodd;stroke:none" /><path
       d="m 318.7287,108.324 0,-10.8031 14.4468,0 c 0,-0.04 -0.0108,10.804 0,10.8031 -0.0108,9e-4 7.065,0 7.1501,0 0,0 0.021,-26.981 0,-27.013 l -7.1501,0 0,11.891 c 0,-0.0391 -14.4468,0 -14.4468,0 0.015,-0.051 0,-11.899 0,-11.891 l -7.1461,0 c 0,0 0.0439,27.013 0,27.013 l 7.1461,0 z"
       id="path92"
       style="fill:#231f20;fill-opacity:1;fill-rule:nonzero;stroke:none" /><path
       d="m 250.8749,108.324 0,-4.593 -10.9318,0 0,-22.42 -7.1512,0 0,22.42 -10.929,0 c 0,0 0.0102,4.5831 0,4.593 0.0102,-0.01 29.012,0 29.012,0"
       id="path94"
       style="fill:#231f20;fill-opacity:1;fill-rule:nonzero;stroke:none" /><path
       d="m 261.6622,103.731 -4.9709,-12.2887 9.9559,0 -4.985,12.2887 z m 17.003,-22.4198 -7.9611,0 c 0.008,0 -2.3408,5.804 -2.3408,5.804 l -13.398,0 c 0,0 -2.302,-5.8122 -2.3332,-5.804 0,-0.0082 -7.9619,0 -7.9619,0 l 12.611,27.0131 c 0,-0.0131 8.7679,0 8.7679,0 l 12.6161,-27.0131 z"
       id="path96"
       style="fill:#231f20;fill-opacity:1;fill-rule:nonzero;stroke:none" /><path
       d="m 345.9889,108.3237 7.1541,0 0,-27.013 -7.1541,0 0,27.013 z"
       id="path98"
       style="fill:#231f20;fill-opacity:1;fill-rule:nonzero;stroke:none" /><path
       d="m 184.8937,108.324 c 0,0 -0.008,-10.8842 0,-10.8031 l 14.436,0 c 0,-0.04 -0.0161,10.804 0,10.8031 -0.0161,9e-4 7.081,0 7.155,0 0,0 0.026,-26.981 0,-27.013 l -7.155,0 0,11.891 c 0,-0.0391 -14.436,0 -14.436,0 0,-0.051 -0.008,-11.899 0,-11.891 l -7.1481,0 c 0,0 0.0289,27.013 0,27.013 l 7.1481,0 z"
       id="path100"
       style="fill:#231f20;fill-opacity:1;fill-rule:nonzero;stroke:none" /><path
       d="m 212.154,108.3237 7.1438,0 0,-27.013 -7.1438,0 0,27.013 z"
       id="path102"
       style="fill:#231f20;fill-opacity:1;fill-rule:nonzero;stroke:none" /><path
       d="m 278.4121,88.7879 c -0.631,1.8218 -0.961,3.742 -0.961,5.762 0,2.838 0.495,5.5859 1.8562,7.8769 1.3969,2.346 3.547,4.161 6.139,5.1239 2.474,0.932 5.1349,1.4423 7.9228,1.4423 3.2102,0 6.2422,-0.701 9.0241,-1.9001 2.579,-1.11 4.523,-3.4322 5.1009,-6.2402 0.1182,-0.5547 0.201,-1.135 0.2501,-1.7149 l -7.507,0 c -0.023,0.7282 -0.1361,1.4351 -0.379,2.078 -0.5769,1.4919 -1.819,2.6609 -3.352,3.121 -0.9941,0.3101 -2.0551,0.4711 -3.1371,0.4711 -1.2399,0 -2.4338,-0.21 -3.543,-0.608 -1.8289,-0.6441 -3.2539,-2.1291 -3.8979,-3.966 -0.633,-1.7719 -0.9851,-3.6881 -0.9851,-5.684 0,-1.6532 0.269,-3.244 0.684,-4.7429 0.5471,-1.9661 2.0211,-3.5482 3.903,-4.2713 1.194,-0.4447 2.486,-0.7078 3.839,-0.7078 1.154,0 2.2581,0.1741 3.306,0.5119 1.3972,0.4479 2.5342,1.48 3.1292,2.8069 0.3878,0.881 0.584,1.8573 0.584,2.9001 l 7.535,0 c -0.049,-0.8818 -0.165,-1.7529 -0.3631,-2.5639 -0.644,-2.6739 -2.5141,-4.9241 -4.9969,-5.961 -2.8301,-1.1851 -5.931,-1.8771 -9.1942,-1.8771 -2.5279,0 -4.9688,0.3972 -7.2499,1.1152 -3.4849,1.0978 -6.5069,3.6119 -7.7071,7.0279"
       id="path104"
       style="fill:#231f20;fill-opacity:1;fill-rule:nonzero;stroke:none" /></g></svg>